# xmcd
#
# Track frame offsets:
#	150
#	17567
#	31960
#	54002
#	70407
#	87143
#	110109
#	124893
#	137971
#	158004
#
# Disc length: 2318 seconds
#
# Revision: 1
# Processed by: cddbd v1.5.2PL0 Copyright (c) Steve Scherf et al.
# Submitted via: audiograbber 1.83.01
#
DISCID=80090c0a
DTITLE=The Lone Bellow - Walk Into A Storm
DYEAR=2017
DGENRE=Country
TTITLE0=Deeper in the Water
TTITLE1=Is It Ever Gonna Be Easy
TTITLE2=May You Be Well
TTITLE3=Come Break My Heart Again
TTITLE4=Feather
TTITLE5=Walk Into a Storm
TTITLE6=Time's Always Leaving
TTITLE7=Can't Be Happy for Long
TTITLE8=Between the Lines
TTITLE9=Long Way to Go
EXTD=
EXTT0=
EXTT1=
EXTT2=
EXTT3=
EXTT4=
EXTT5=
EXTT6=
EXTT7=
EXTT8=
EXTT9=
PLAYORDER=
